<svg width="96" height="96" viewBox="0 0 96 96" fill="none" xmlns="http://www.w3.org/2000/svg">
<path fill-rule="evenodd" clip-rule="evenodd" d="M0.344238 13.6786V27.0129H13.6786H27.0129V13.6786V0.344238H13.6786H0.344238V13.6786ZM30.8227 6.05895V11.7737H32.7276H34.6325V9.86876V7.96385H36.5374H38.4423V11.7737V15.5835H34.6325H30.8227V17.4884V19.3933H32.7276H34.6325V21.2982V23.2031H32.7276H30.8227V25.108V27.0129H32.7276H34.6325V28.9178V30.8227H23.2031H11.7737V36.5374V42.2521H9.86876H7.96385V40.3472V38.4423H6.05895H4.15405V34.6325V30.8227H2.24914H0.344238V34.6325V38.4423H2.24914H4.15405V40.3472V42.2521H6.05895H7.96385V44.157V46.0619H4.15405H0.344238V47.9668V49.8717H2.24914H4.15405V51.7766V53.6815H7.96385H11.7737V51.7766V49.8717H13.6786H15.5835V51.7766V53.6815H19.3933H23.2031V55.5864V57.4913H13.6786H4.15405V61.3012V65.111H15.5835H27.0129V63.2061V61.3012H28.9178H30.8227V72.7306V84.16H32.7276H34.6325V82.2551V80.3502H36.5374H38.4423V87.9698V95.5894H40.3472H42.2521V84.16V72.7306H44.157H46.0619V76.5404V80.3502H49.8717H53.6815V86.0649V91.7796H51.7766H49.8717V93.6845V95.5894H53.6815H57.4913V93.6845V91.7796H59.3963H61.3012V93.6845V95.5894H63.2061H65.111V93.6845V91.7796H63.2061H61.3012V87.9698V84.16H59.3963H57.4913V82.2551V80.3502H61.3012H65.111V84.16V87.9698H67.0159H68.9208V91.7796V95.5894H70.8257H72.7306V93.6845V91.7796H76.5404H80.3502V93.6845V95.5894H82.2551H84.16V93.6845V91.7796H87.9698H91.7796V93.6845V95.5894H93.6845H95.5894V82.2551V68.9208H93.6845H91.7796V65.111V61.3012H93.6845H95.5894V57.4913V53.6815H93.6845H91.7796V51.7766V49.8717H93.6845H95.5894V44.157V38.4423H93.6845H91.7796V36.5374V34.6325H93.6845H95.5894V32.7276V30.8227H89.8747H84.16V32.7276V34.6325H82.2551H80.3502V32.7276V30.8227H78.4453H76.5404V32.7276V34.6325H74.6355H72.7306V36.5374V38.4423H70.8257H68.9208V44.157V49.8717H67.0159H65.111V47.9668V46.0619H63.2061H61.3012V36.5374V27.0129H63.2061H65.111V21.2982V15.5835H63.2061H61.3012V21.2982V27.0129H59.3963H57.4913V25.108V23.2031H55.5864H53.6815V25.108V27.0129H51.7766H49.8717V17.4884V7.96385H47.9668H46.0619V11.7737V15.5835H44.157H42.2521V7.96385V0.344238H40.3472H38.4423V2.24914V4.15405H36.5374H34.6325V2.24914V0.344238H32.7276H30.8227V6.05895ZM46.0619 2.24914V4.15405H47.9668H49.8717V2.24914V0.344238H47.9668H46.0619V2.24914ZM53.6815 2.24914V4.15405H57.4913H61.3012V6.05895V7.96385H59.3963H57.4913V9.86876V11.7737H59.3963H61.3012V9.86876V7.96385H63.2061H65.111V4.15405V0.344238H59.3963H53.6815V2.24914ZM68.9208 13.6786V27.0129H82.2551H95.5894V13.6786V0.344238H82.2551H68.9208V13.6786ZM23.2031 13.6786V23.2031H13.6786H4.15405V13.6786V4.15405H13.6786H23.2031V13.6786ZM91.7796 13.6786V23.2031H82.2551H72.7306V13.6786V4.15405H82.2551H91.7796V13.6786ZM7.96385 13.6786V19.3933H13.6786H19.3933V13.6786V7.96385H13.6786H7.96385V13.6786ZM76.5404 13.6786V19.3933H82.2551H87.9698V13.6786V7.96385H82.2551H76.5404V13.6786ZM42.2521 17.4884V19.3933H44.157H46.0619V23.2031V27.0129H47.9668H49.8717V28.9178V30.8227H47.9668H46.0619V32.7276V34.6325H47.9668H49.8717V40.3472V46.0619H47.9668H46.0619V47.9668V49.8717H47.9668H49.8717V51.7766V53.6815H44.157H38.4423V57.4913V61.3012H36.5374H34.6325V59.3963V57.4913H32.7276H30.8227V53.6815V49.8717H28.9178H27.0129V51.7766V53.6815H25.108H23.2031V51.7766V49.8717H25.108H27.0129V47.9668V46.0619H25.108H23.2031V44.157V42.2521H28.9178H34.6325V47.9668V53.6815H36.5374H38.4423V51.7766V49.8717H40.3472H42.2521V47.9668V46.0619H44.157H46.0619V40.3472V34.6325H44.157H42.2521V28.9178V23.2031H40.3472H38.4423V25.108V27.0129H36.5374H34.6325V25.108V23.2031H36.5374H38.4423V19.3933V15.5835H40.3472H42.2521V17.4884ZM53.6815 17.4884V19.3933H55.5864H57.4913V17.4884V15.5835H55.5864H53.6815V17.4884ZM57.4913 36.5374V46.0619H59.3963H61.3012V47.9668V49.8717H63.2061H65.111V53.6815V57.4913H63.2061H61.3012V59.3963V61.3012H57.4913H53.6815V63.2061V65.111H47.9668H42.2521V68.9208V72.7306H40.3472H38.4423V74.6355V76.5404H36.5374H34.6325V74.6355V72.7306H36.5374H38.4423V68.9208V65.111H40.3472H42.2521V63.2061V61.3012H44.157H46.0619V59.3963V57.4913H49.8717H53.6815V55.5864V53.6815H55.5864H57.4913V55.5864V57.4913H59.3963H61.3012V53.6815V49.8717H57.4913H53.6815V38.4423V27.0129H55.5864H57.4913V36.5374ZM38.4423 34.6325V38.4423H36.5374H34.6325V34.6325V30.8227H36.5374H38.4423V34.6325ZM65.111 32.7276V34.6325H67.0159H68.9208V32.7276V30.8227H67.0159H65.111V32.7276ZM30.8227 36.5374V38.4423H25.108H19.3933V40.3472V42.2521H17.4884H15.5835V44.157V46.0619H17.4884H19.3933V47.9668V49.8717H17.4884H15.5835V47.9668V46.0619H13.6786H11.7737V47.9668V49.8717H9.86876H7.96385V47.9668V46.0619H9.86876H11.7737V44.157V42.2521H13.6786H15.5835V38.4423V34.6325H23.2031H30.8227V36.5374ZM80.3502 42.2521V46.0619H86.0649H91.7796V47.9668V49.8717H89.8747H87.9698V51.7766V53.6815H84.16H80.3502V51.7766V49.8717H78.4453H76.5404V53.6815V57.4913H78.4453H80.3502V59.3963V61.3012H82.2551H84.16V65.111V68.9208H87.9698H91.7796V70.8257V72.7306H89.8747H87.9698V74.6355V76.5404H89.8747H91.7796V78.4453V80.3502H89.8747H87.9698V82.2551V84.16H82.2551H76.5404V86.0649V87.9698H72.7306H68.9208V86.0649V84.16H70.8257H72.7306V82.2551V80.3502H76.5404H80.3502V70.8257V61.3012H78.4453H76.5404V59.3963V57.4913H74.6355H72.7306V59.3963V61.3012H70.8257H68.9208V59.3963V57.4913H70.8257H72.7306V55.5864V53.6815H70.8257H68.9208V51.7766V49.8717H70.8257H72.7306V46.0619V42.2521H74.6355H76.5404V40.3472V38.4423H78.4453H80.3502V42.2521ZM91.7796 40.3472V42.2521H87.9698H84.16V40.3472V38.4423H87.9698H91.7796V40.3472ZM27.0129 59.3963V61.3012H25.108H23.2031V59.3963V57.4913H25.108H27.0129V59.3963ZM91.7796 59.3963V61.3012H89.8747H87.9698V59.3963V57.4913H89.8747H91.7796V59.3963ZM61.3012 68.9208V72.7306H57.4913H53.6815V74.6355V76.5404H51.7766H49.8717V74.6355V72.7306H47.9668H46.0619V70.8257V68.9208H51.7766H57.4913V67.0159V65.111H59.3963H61.3012V68.9208ZM76.5404 70.8257V76.5404H70.8257H65.111V70.8257V65.111H70.8257H76.5404V70.8257ZM0.344238 82.2551V95.5894H13.6786H27.0129V82.2551V68.9208H13.6786H0.344238V82.2551ZM68.9208 70.8257V72.7306H70.8257H72.7306V70.8257V68.9208H70.8257H68.9208V70.8257ZM23.2031 82.2551V91.7796H13.6786H4.15405V82.2551V72.7306H13.6786H23.2031V82.2551ZM7.96385 82.2551V87.9698H13.6786H19.3933V82.2551V76.5404H13.6786H7.96385V82.2551ZM46.0619 86.0649V87.9698H47.9668H49.8717V86.0649V84.16H47.9668H46.0619V86.0649ZM84.16 89.8747V91.7796H82.2551H80.3502V89.8747V87.9698H82.2551H84.16V89.8747ZM30.8227 93.6845V95.5894H32.7276H34.6325V93.6845V91.7796H32.7276H30.8227V93.6845Z" fill="#202020"/>
</svg>
